<svg width="21" height="18" viewBox="0 0 21 18" fill="none" xmlns="http://www.w3.org/2000/svg">
<path fill-rule="evenodd" clip-rule="evenodd" d="M21 1.5V13.5C21 14.3284 20.3284 15 19.5 15H13.5C12.2574 15 11.25 16.0074 11.25 17.25C11.25 17.6642 10.9142 18 10.5 18C10.0858 18 9.75 17.6642 9.75 17.25C9.75 16.0074 8.74264 15 7.5 15H1.5C0.671573 15 0 14.3284 0 13.5V1.5C0 0.671573 0.671573 0 1.5 0H6.75C8.40685 0 9.75 1.34315 9.75 3V11.25C9.75 11.6642 10.0858 12 10.5 12C10.9142 12 11.25 11.6642 11.25 11.25V3C11.25 1.34315 12.5931 0 14.25 0H19.5C20.3284 0 21 0.671573 21 1.5Z" fill="#121417"/>
</svg>
